<?xml version="1.0" standalone="no"?>
<!DOCTYPE svg PUBLIC "-//W3C//DTD SVG 20010904//EN"
 "http://www.w3.org/TR/2001/REC-SVG-20010904/DTD/svg10.dtd">
<svg version="1.0" xmlns="http://www.w3.org/2000/svg"
 width="500.000000pt" height="500.000000pt" viewBox="0 0 500.000000 500.000000"
 preserveAspectRatio="xMidYMid meet">

<g transform="translate(0.000000,500.000000) scale(0.100000,-0.100000)"
fill="#000000" stroke="none">
<path d="M1694 3961 c-223 -101 -241 -470 -41 -831 36 -65 123 -197 134 -203
5 -2 29 -8 55 -11 l47 -7 -60 95 c-119 190 -186 355 -210 516 -30 208 32 385
156 441 l40 19 -40 0 c-22 0 -58 -9 -81 -19z"/>
<path d="M3245 3952 c59 -32 108 -99 131 -180 27 -93 15 -280 -26 -407 -39
-119 -111 -267 -181 -371 -28 -42 -49 -78 -46 -80 13 -14 85 12 113 40 45 45
138 209 184 323 59 147 72 218 68 353 -3 100 -7 123 -31 175 -16 33 -42 75
-60 94 -40 42 -121 81 -167 81 l-35 0 50 -28z"/>
<path d="M1781 3944 c-61 -31 -100 -79 -132 -163 -19 -50 -21 -71 -17 -186 4
-113 9 -143 37 -225 41 -122 116 -272 189 -380 53 -78 61 -86 102 -96 27 -6
46 -7 49 -2 1 5 -17 40 -42 78 -158 237 -237 457 -237 663 0 167 42 261 138
312 l47 24 -41 1 c-24 0 -61 -10 -93 -26z"/>
<path d="M3126 3951 c22 -10 56 -37 77 -61 146 -170 78 -552 -162 -917 l-60
-92 32 6 c59 10 81 28 134 103 111 160 199 371 223 539 24 164 -3 284 -84 367
-53 54 -98 74 -166 74 l-35 0 41 -19z"/>
<path d="M1890 3939 c-78 -31 -138 -138 -147 -264 -14 -188 76 -454 233 -690
63 -96 80 -112 131 -129 54 -19 55 -21 -26 104 -220 337 -299 691 -197 888 9
18 34 45 56 61 22 16 36 31 33 35 -9 9 -54 6 -83 -5z"/>
<path d="M3030 3941 c0 -5 16 -19 35 -31 44 -27 82 -105 96 -195 33 -207 -86
-556 -276 -814 -45 -61 -45 -61 -18 -55 72 17 90 32 153 125 81 122 153 266
197 398 32 94 37 120 41 232 3 101 1 137 -12 177 -24 72 -70 130 -119 153 -44
20 -97 25 -97 10z"/>
<path d="M1954 3900 c-95 -61 -124 -266 -69 -479 39 -151 140 -357 250 -510
44 -61 67 -83 97 -96 22 -9 43 -14 46 -11 2 3 -27 54 -65 113 -253 388 -332
778 -193 953 25 32 27 39 14 44 -27 10 -48 6 -80 -14z"/>
<path d="M2965 3910 c-4 -6 7 -26 24 -45 42 -48 61 -121 61 -232 0 -213 -87
-456 -257 -717 -40 -61 -68 -112 -63 -114 4 -2 24 4 43 12 91 38 289 383 348
608 27 102 32 285 10 363 -19 64 -87 135 -130 135 -16 0 -33 -5 -36 -10z"/>
<path d="M2910 3873 c-14 -9 -27 -18 -29 -20 -2 -1 2 -11 10 -20 9 -10 21 -31
28 -48 19 -42 26 -219 12 -301 -25 -141 -118 -379 -206 -523 -36 -61 -44 -101
-22 -119 16 -14 85 85 167 240 123 234 163 368 164 548 1 109 -1 118 -29 174
-38 75 -61 92 -95 69z"/>
<path d="M2033 3858 c-44 -48 -57 -90 -61 -195 -7 -173 31 -321 138 -534 56
-113 160 -282 180 -294 6 -3 15 6 22 21 11 23 9 32 -12 68 -214 372 -290 709
-200 890 14 29 16 43 8 53 -16 20 -52 16 -75 -9z"/>
<path d="M2108 3793 c-21 -43 -23 -61 -22 -178 1 -190 41 -326 165 -565 75
-144 82 -151 99 -111 11 28 8 39 -38 143 -52 119 -101 262 -123 363 -16 72
-16 269 0 309 11 26 9 32 -16 58 -14 15 -30 28 -34 28 -4 0 -18 -21 -31 -47z"/>
<path d="M2836 3815 c-28 -22 -29 -24 -17 -68 16 -65 14 -223 -4 -309 -22
-103 -79 -268 -130 -376 -44 -92 -44 -94 -29 -125 16 -30 17 -30 31 -11 8 10
43 75 78 144 69 137 125 287 146 395 20 102 18 249 -4 307 -25 64 -36 71 -71
43z"/>
<path d="M2205 3760 c-5 -8 -10 -59 -13 -114 -7 -167 36 -347 134 -553 l46
-98 14 30 c19 43 18 48 -27 180 -56 166 -79 281 -79 398 0 96 0 98 -33 134
-26 27 -36 33 -42 23z"/>
<path d="M2758 3736 c-25 -31 -28 -43 -28 -108 0 -112 -26 -249 -75 -397 -48
-142 -51 -163 -34 -208 l11 -28 33 65 c46 91 102 244 127 348 29 122 29 362 0
362 -4 0 -19 -16 -34 -34z"/>
<path d="M2441 3730 c-1 -3 6 -25 13 -50 11 -32 15 -38 15 -20 0 20 -28 89
-28 70z"/>
<path d="M2542 3691 c-7 -19 -12 -41 -11 -50 0 -9 7 2 15 23 8 22 13 45 11 50
-2 6 -9 -5 -15 -23z"/>
<path d="M2566 3674 c-9 -26 -16 -52 -15 -58 0 -6 9 13 20 43 10 30 17 56 15
58 -2 2 -11 -17 -20 -43z"/>
<path d="M2422 3705 c0 -5 6 -26 13 -45 7 -19 14 -28 14 -20 0 8 -6 29 -14 45
-7 17 -13 26 -13 20z"/>
<path d="M1492 3670 c0 -19 2 -27 5 -17 2 9 2 25 0 35 -3 9 -5 1 -5 -18z"/>
<path d="M2503 3635 c0 -27 2 -38 4 -22 2 15 2 37 0 50 -2 12 -4 0 -4 -28z"/>
<path d="M2666 3618 c-28 -42 -38 -68 -46 -128 -6 -41 -22 -121 -36 -178 -25
-100 -25 -104 -9 -153 10 -28 18 -49 20 -47 10 10 60 157 82 243 23 90 45 315
31 315 -3 0 -22 -24 -42 -52z"/>
<path d="M2293 3569 c9 -124 53 -303 107 -434 l13 -30 17 55 c17 52 16 57 -1
120 -11 36 -28 117 -39 180 -15 89 -26 124 -47 154 -49 69 -57 62 -50 -45z"/>
<path d="M3513 3610 c0 -30 2 -43 4 -27 2 15 2 39 0 55 -2 15 -4 2 -4 -28z"/>
<path d="M1493 3570 c0 -25 2 -35 4 -22 2 12 2 32 0 45 -2 12 -4 2 -4 -23z"/>
<path d="M2400 3499 c0 -18 36 -200 46 -233 10 -31 24 2 24 56 0 48 -28 139
-55 174 -12 16 -14 16 -15 3z"/>
<path d="M2585 3487 c-34 -53 -57 -138 -50 -190 5 -31 11 -45 17 -39 10 10 60
243 53 250 -2 2 -11 -7 -20 -21z"/>
<path d="M2637 2915 c6 -32 11 -41 17 -34 2 2 -2 18 -10 34 l-13 30 6 -30z"/>
<path d="M2357 2917 c-4 -10 -7 -26 -7 -35 1 -15 2 -15 11 1 6 10 9 25 7 35
-3 16 -4 15 -11 -1z"/>
<path d="M1337 2904 c-226 -41 -398 -141 -472 -276 -26 -46 -30 -63 -30 -128
0 -52 6 -84 17 -105 l17 -30 1 41 c1 128 88 243 244 319 50 25 136 57 191 72
93 24 116 26 316 27 190 1 216 3 208 16 -16 27 -45 57 -66 69 -31 16 -329 13
-426 -5z"/>
<path d="M2452 2890 c0 -19 2 -27 5 -17 2 9 2 25 0 35 -3 9 -5 1 -5 -18z"/>
<path d="M3244 2910 c-19 -7 -74 -68 -74 -81 0 -2 70 -3 157 -1 329 7 568 -61
709 -202 69 -69 94 -125 95 -215 l1 -56 19 40 c28 61 26 162 -6 225 -71 140
-277 257 -508 289 -92 13 -363 14 -393 1z"/>
<path d="M2387 2896 c-4 -10 -7 -25 -6 -34 0 -11 4 -9 10 7 5 13 8 29 6 35 -2
5 -6 2 -10 -8z"/>
<path d="M1819 2883 c20 -38 62 -66 106 -73 25 -4 45 -3 45 1 0 5 -17 26 -38
49 -33 34 -45 40 -81 40 -37 0 -41 -2 -32 -17z"/>
<path d="M2610 2885 c0 -11 5 -27 10 -35 8 -12 10 -12 10 5 0 11 -5 27 -10 35
-8 12 -10 12 -10 -5z"/>
<path d="M3079 2861 c-51 -50 -50 -60 4 -50 23 4 45 8 49 9 3 0 21 18 38 40
l32 40 -42 0 c-36 0 -48 -6 -81 -39z"/>
<path d="M1970 2840 c23 -29 44 -44 82 -55 28 -8 53 -13 56 -10 11 10 -64 81
-97 92 -69 22 -76 17 -41 -27z"/>
<path d="M2581 2855 c0 -16 4 -37 9 -45 8 -12 10 -10 9 10 0 14 -4 34 -9 45
-7 17 -9 16 -9 -10z"/>
<path d="M2984 2861 c-35 -16 -84 -66 -84 -85 0 -3 21 1 46 9 43 13 114 67
114 87 0 13 -33 9 -76 -11z"/>
<path d="M2410 2833 c0 -43 5 -41 13 5 4 18 2 32 -3 32 -6 0 -10 -16 -10 -37z"/>
<path d="M2321 2834 c-6 -15 -9 -29 -6 -33 8 -7 35 28 35 46 0 22 -16 15 -29
-13z"/>
<path d="M2660 2850 c0 -26 12 -60 21 -60 14 0 10 34 -6 56 -11 14 -14 15 -15
4z"/>
<path d="M2080 2845 c0 -3 16 -23 36 -45 33 -36 107 -71 121 -56 13 12 -66 78
-109 91 -27 8 -48 12 -48 10z"/>
<path d="M2482 2830 c0 -14 2 -19 5 -12 2 6 2 18 0 25 -3 6 -5 1 -5 -13z"/>
<path d="M2510 2831 c0 -12 5 -21 10 -21 6 0 10 6 10 14 0 8 -4 18 -10 21 -5
3 -10 -3 -10 -14z"/>
<path d="M2864 2829 c-47 -18 -104 -72 -90 -86 13 -13 96 30 121 63 15 20 25
37 24 39 -2 1 -27 -6 -55 -16z"/>
<path d="M1450 2810 c-161 -23 -320 -79 -411 -146 -61 -45 -123 -120 -139
-170 -18 -52 -8 -144 18 -185 l22 -34 -6 42 c-28 184 233 367 579 404 54 6
170 9 258 8 87 -2 159 -2 159 1 0 3 -18 23 -39 44 l-39 38 -169 4 c-92 1 -197
-1 -233 -6z"/>
<path d="M3184 2813 c-20 -3 -46 -19 -72 -46 l-42 -42 171 3 c347 8 576 -53
729 -194 75 -70 92 -101 99 -184 l6 -65 20 35 c13 24 19 55 20 100 0 54 -5 73
-29 114 -106 181 -386 289 -741 284 -71 -1 -144 -3 -161 -5z"/>
<path d="M1900 2792 c0 -4 15 -22 33 -39 27 -27 89 -52 130 -53 13 0 -43 64
-67 76 -29 16 -96 27 -96 16z"/>
<path d="M2234 2782 c22 -26 36 -28 36 -7 0 8 -4 15 -9 15 -5 0 -18 3 -28 7
-17 6 -17 5 1 -15z"/>
<path d="M2745 2787 c-13 -10 -15 -16 -6 -21 12 -8 41 10 41 25 0 13 -13 11
-35 -4z"/>
<path d="M3042 2790 c-31 -7 -117 -78 -108 -88 3 -2 29 1 58 7 36 8 63 22 85
43 50 48 42 56 -35 38z"/>
<path d="M2920 2764 c-29 -8 -60 -28 -85 -55 l-40 -41 35 7 c19 4 44 11 55 15
22 9 91 77 84 84 -2 2 -24 -2 -49 -10z"/>
<path d="M2040 2762 c0 -19 61 -64 105 -78 68 -20 73 -18 39 17 -42 46 -144
88 -144 61z"/>
<path d="M2287 2763 c-10 -10 -8 -43 2 -43 9 0 21 24 21 41 0 11 -14 12 -23 2z"/>
<path d="M2462 2750 c0 -14 2 -19 5 -12 2 6 2 18 0 25 -3 6 -5 1 -5 -13z"/>
<path d="M2697 2764 c-3 -4 -2 -16 4 -26 13 -24 33 -10 23 15 -6 18 -16 21
-27 11z"/>
<path d="M2502 2720 c0 -14 2 -19 5 -12 2 6 2 18 0 25 -3 6 -5 1 -5 -13z"/>
<path d="M2660 2728 c0 -9 5 -20 10 -23 13 -8 13 5 0 25 -8 13 -10 13 -10 -2z"/>
<path d="M2797 2728 c-15 -5 -26 -15 -24 -21 6 -19 28 -14 45 11 8 12 13 22
11 21 -2 0 -17 -5 -32 -11z"/>
<path d="M2198 2708 c19 -19 24 -21 32 -8 10 17 -4 30 -35 30 -19 0 -18 -1 3
-22z"/>
<path d="M2331 2714 c0 -11 3 -14 6 -6 3 7 2 16 -1 19 -3 4 -6 -2 -5 -13z"/>
<path d="M1502 2709 c-177 -23 -370 -101 -459 -187 -85 -82 -114 -179 -77
-258 19 -40 34 -36 34 10 0 52 46 131 103 177 71 57 192 114 312 146 96 26
110 27 362 27 l263 1 -40 40 c-36 36 -45 40 -112 46 -95 10 -306 9 -386 -2z"/>
<path d="M2410 2701 c0 -12 5 -21 10 -21 6 0 10 6 10 14 0 8 -4 18 -10 21 -5
3 -10 -3 -10 -14z"/>
<path d="M2580 2700 c0 -19 3 -21 12 -12 9 9 9 15 0 24 -9 9 -12 7 -12 -12z"/>
<path d="M3112 2711 c-55 -7 -69 -13 -100 -45 l-37 -36 227 0 c237 0 321 -10
449 -51 150 -48 287 -138 326 -213 9 -17 22 -56 28 -86 l11 -55 19 29 c27 40
25 127 -3 182 -60 117 -249 222 -477 264 -77 14 -361 21 -443 11z"/>
<path d="M2250 2696 c-13 -17 -7 -46 9 -46 14 0 25 40 14 51 -6 6 -15 4 -23
-5z"/>
<path d="M2725 2700 c-3 -5 -1 -19 5 -30 9 -17 14 -19 25 -10 11 9 12 17 4 31
-11 21 -24 24 -34 9z"/>
<path d="M2014 2672 c32 -35 74 -56 126 -66 l34 -6 -38 39 c-25 26 -51 41 -75
46 -20 3 -45 9 -56 12 -17 4 -15 0 9 -25z"/>
<path d="M2947 2686 c-42 -12 -107 -58 -107 -77 0 -19 97 14 136 47 24 19 44
37 44 40 0 7 -21 4 -73 -10z"/>
<path d="M2450 2679 c0 -5 5 -7 10 -4 6 3 10 8 10 11 0 2 -4 4 -10 4 -5 0 -10
-5 -10 -11z"/>
<path d="M2535 2680 c3 -5 11 -10 16 -10 6 0 7 5 4 10 -3 6 -11 10 -16 10 -6
0 -7 -4 -4 -10z"/>
<path d="M2140 2662 c0 -15 42 -34 53 -23 7 7 5 12 -6 16 -9 3 -24 7 -32 10
-8 2 -15 1 -15 -3z"/>
<path d="M2297 2663 c-12 -11 -8 -23 8 -23 8 0 15 7 15 15 0 16 -12 20 -23 8z"/>
<path d="M2360 2655 c0 -8 2 -15 4 -15 2 0 6 7 10 15 3 8 1 15 -4 15 -6 0 -10
-7 -10 -15z"/>
<path d="M2630 2656 c0 -9 5 -16 10 -16 6 0 10 4 10 9 0 6 -4 13 -10 16 -5 3
-10 -1 -10 -9z"/>
<path d="M2690 2655 c0 -9 5 -15 11 -13 6 2 11 8 11 13 0 5 -5 11 -11 13 -6 2
-11 -4 -11 -13z"/>
<path d="M2828 2663 c-21 -5 -24 -33 -5 -33 14 0 37 20 37 32 0 8 -4 9 -32 1z"/>
<path d="M2223 2643 c-15 -5 -18 -43 -4 -43 5 0 14 7 21 15 14 17 3 35 -17 28z"/>
<path d="M2760 2628 c0 -16 19 -38 33 -38 4 0 7 10 5 22 -3 25 -38 39 -38 16z"/>
<path d="M2405 2620 c-3 -5 -1 -10 4 -10 6 0 11 5 11 10 0 6 -2 10 -4 10 -3 0
-8 -4 -11 -10z"/>
<path d="M2590 2620 c0 -5 5 -10 11 -10 5 0 7 5 4 10 -3 6 -8 10 -11 10 -2 0
-4 -4 -4 -10z"/>
<path d="M2700 2619 c0 -5 5 -7 10 -4 6 3 10 8 10 11 0 2 -4 4 -10 4 -5 0 -10
-5 -10 -11z"/>
<path d="M1485 2596 c-241 -51 -395 -140 -451 -261 -29 -61 -30 -99 -4 -125
26 -26 40 -25 40 0 0 93 152 213 345 273 155 48 250 59 493 55 122 -2 222 0
222 3 0 3 -13 17 -28 32 -39 37 -107 47 -327 46 -148 0 -199 -4 -290 -23z"/>
<path d="M2990 2611 c-43 -6 -125 -56 -116 -70 3 -4 53 -3 113 2 445 34 865
-101 939 -302 22 -59 20 -57 44 -36 30 27 26 89 -10 152 -55 96 -199 180 -392
229 -93 24 -124 27 -318 29 -118 2 -235 0 -260 -4z"/>
<path d="M2255 2599 c-10 -15 1 -23 20 -15 9 3 13 10 10 16 -8 13 -22 13 -30
-1z"/>
<path d="M2727 2603 c-12 -11 -8 -23 8 -23 8 0 15 7 15 15 0 16 -12 20 -23 8z"/>
<path d="M2119 2580 c17 -14 27 -18 34 -11 14 14 9 18 -28 26 l-30 6 24 -21z"/>
<path d="M2620 2588 c0 -9 5 -20 10 -23 13 -8 13 5 0 25 -8 13 -10 13 -10 -2z"/>
<path d="M2868 2593 c-19 -5 -24 -18 -9 -27 4 -3 16 3 26 14 18 20 16 22 -17
13z"/>
<path d="M2366 2575 c-3 -8 -1 -15 4 -15 6 0 10 7 10 15 0 8 -2 15 -4 15 -2 0
-6 -7 -10 -15z"/>
<path d="M2177 2573 c-4 -3 -7 -15 -7 -26 0 -16 3 -17 15 -7 8 7 15 19 15 26
0 15 -12 19 -23 7z"/>
<path d="M2800 2571 c0 -11 29 -35 35 -29 10 9 -7 38 -21 38 -8 0 -14 -4 -14
-9z"/>
<path d="M2415 2550 c-3 -5 -1 -10 4 -10 6 0 11 5 11 10 0 6 -2 10 -4 10 -3 0
-8 -4 -11 -10z"/>
<path d="M2225 2540 c-3 -5 -2 -10 4 -10 5 0 13 5 16 10 3 6 2 10 -4 10 -5 0
-13 -4 -16 -10z"/>
<path d="M2290 2539 c0 -5 5 -7 10 -4 6 3 10 8 10 11 0 2 -4 4 -10 4 -5 0 -10
-5 -10 -11z"/>
<path d="M2695 2540 c3 -5 8 -10 11 -10 2 0 4 5 4 10 0 6 -5 10 -11 10 -5 0
-7 -4 -4 -10z"/>
<path d="M2760 2546 c0 -2 7 -9 15 -16 13 -11 14 -10 9 4 -5 14 -24 23 -24 12z"/>
<path d="M1630 2519 c-292 -47 -516 -172 -545 -306 -6 -28 -3 -34 23 -47 l30
-16 25 43 c45 76 153 146 302 196 128 42 255 61 448 68 l168 6 19 27 20 28
-31 6 c-46 9 -395 5 -459 -5z"/>
<path d="M2918 2523 c-27 -4 -27 -5 -13 -32 l14 -28 179 -6 c98 -4 216 -14
261 -22 108 -21 249 -67 325 -108 58 -31 149 -111 172 -151 16 -29 64 -14 64
20 0 119 -193 247 -465 310 -69 15 -472 29 -537 17z"/>
<path d="M2132 2502 c-22 -22 -29 -42 -14 -42 15 0 44 38 40 51 -3 9 -11 6
-26 -9z"/>
<path d="M2850 2509 c0 -17 37 -56 46 -47 3 3 -6 19 -20 34 -18 21 -25 24 -26
13z"/>
<path d="M2275 2479 c-11 -17 0 -20 21 -4 17 13 17 14 2 15 -9 0 -20 -5 -23
-11z"/>
<path d="M2700 2481 c0 -5 7 -12 16 -15 22 -9 24 -8 18 9 -7 16 -34 21 -34 6z"/>
<path d="M2321 2454 c0 -11 3 -14 6 -6 3 7 2 16 -1 19 -3 4 -6 -2 -5 -13z"/>
<path d="M2670 2461 c0 -5 5 -13 10 -16 6 -3 10 -2 10 4 0 5 -4 13 -10 16 -5
3 -10 2 -10 -4z"/>
<path d="M2410 2449 c0 -5 5 -7 10 -4 6 3 10 8 10 11 0 2 -4 4 -10 4 -5 0 -10
-5 -10 -11z"/>
<path d="M1840 2440 c-261 -14 -482 -84 -606 -193 -39 -34 -82 -94 -72 -101 2
-2 18 -8 37 -14 32 -11 35 -10 86 36 115 105 330 177 605 203 126 12 150 21
171 61 11 20 19 20 -221 8z"/>
<path d="M2095 2442 c-5 -4 -17 -16 -25 -27 -11 -15 -7 -14 13 4 24 22 32 31
25 31 -2 0 -7 -4 -13 -8z"/>
<path d="M2890 2447 c0 -2 14 -16 31 -33 26 -24 30 -25 20 -7 -10 19 -51 51
-51 40z"/>
<path d="M2948 2445 c-4 -4 3 -20 14 -36 19 -25 29 -29 67 -29 74 0 299 -37
396 -65 119 -34 241 -94 303 -150 47 -42 52 -44 81 -34 37 13 38 21 10 65 -58
94 -276 195 -492 228 -108 17 -369 31 -379 21z"/>
<path d="M2866 2425 c4 -9 16 -21 28 -27 19 -10 19 -9 -3 16 -28 30 -33 32
-25 11z"/>
<path d="M2105 2410 c-10 -11 -14 -20 -8 -20 5 0 18 9 28 20 10 11 14 20 8 20
-5 0 -18 -9 -28 -20z"/>
<path d="M2160 2410 c-14 -11 -20 -20 -14 -20 7 0 22 9 35 20 31 25 12 26 -21
0z"/>
<path d="M2824 2411 c11 -11 23 -21 28 -21 14 0 -1 19 -25 31 -22 12 -22 12
-3 -10z"/>
<path d="M2490 2410 c0 -5 5 -10 10 -10 6 0 10 5 10 10 0 6 -4 10 -10 10 -5 0
-10 -4 -10 -10z"/>
<path d="M2310 2395 c-11 -13 -10 -14 4 -9 9 3 16 10 16 15 0 13 -6 11 -20 -6z"/>
<path d="M2670 2401 c0 -10 30 -24 37 -17 3 2 -5 9 -16 16 -12 6 -21 7 -21 1z"/>
<path d="M2355 2370 c3 -5 10 -10 16 -10 5 0 9 5 9 10 0 6 -7 10 -16 10 -8 0
-12 -4 -9 -10z"/>
<path d="M2625 2370 c-3 -5 -2 -10 4 -10 5 0 13 5 16 10 3 6 2 10 -4 10 -5 0
-13 -4 -16 -10z"/>
<path d="M1840 2354 c-136 -18 -276 -53 -374 -94 -76 -32 -196 -112 -203 -137
-3 -7 14 -14 43 -19 38 -5 53 -3 83 15 122 74 279 129 456 159 112 19 116 21
145 62 l21 30 -33 -1 c-18 -1 -80 -7 -138 -15z"/>
<path d="M2146 2355 c-11 -8 -16 -15 -10 -15 5 0 18 7 28 15 11 8 16 15 10 15
-5 0 -18 -7 -28 -15z"/>
<path d="M2445 2360 c3 -5 8 -10 11 -10 2 0 4 5 4 10 0 6 -5 10 -11 10 -5 0
-7 -4 -4 -10z"/>
<path d="M2830 2365 c0 -2 10 -10 23 -16 20 -11 21 -11 8 4 -13 16 -31 23 -31
12z"/>
<path d="M3000 2364 c0 -3 12 -20 26 -37 24 -29 36 -33 133 -49 169 -29 321
-79 434 -146 49 -28 66 -33 99 -29 22 3 42 8 46 11 14 14 -70 81 -153 122
-106 52 -234 90 -365 109 -139 20 -220 27 -220 19z"/>
<path d="M2195 2349 c-11 -17 -2 -18 19 -3 17 12 17 14 4 14 -9 0 -20 -5 -23
-11z"/>
<path d="M2490 2350 c0 -5 4 -10 9 -10 6 0 13 5 16 10 3 6 -1 10 -9 10 -9 0
-16 -4 -16 -10z"/>
<path d="M2780 2355 c0 -2 10 -10 23 -16 20 -11 21 -11 8 4 -13 16 -31 23 -31
12z"/>
<path d="M2214 2325 c-17 -13 -17 -14 -2 -15 9 0 20 5 23 11 11 17 0 20 -21 4z"/>
<path d="M2367 2333 c-12 -12 -7 -22 8 -17 8 4 15 10 15 15 0 11 -14 12 -23 2z"/>
<path d="M2622 2329 c2 -7 10 -15 17 -17 8 -3 12 1 9 9 -2 7 -10 15 -17 17 -8
3 -12 -1 -9 -9z"/>
<path d="M2760 2331 c0 -10 30 -24 37 -17 3 2 -5 9 -16 16 -12 6 -21 7 -21 1z"/>
<path d="M2430 2310 c0 -5 5 -10 10 -10 6 0 10 5 10 10 0 6 -4 10 -10 10 -5 0
-10 -4 -10 -10z"/>
<path d="M2550 2310 c0 -5 7 -10 16 -10 8 0 12 5 9 10 -3 6 -10 10 -16 10 -5
0 -9 -4 -9 -10z"/>
<path d="M1815 2260 c-130 -28 -249 -67 -337 -111 -86 -43 -97 -54 -65 -63 52
-14 108 -5 206 34 55 22 105 40 110 40 5 0 38 9 74 20 53 16 72 28 97 60 36
46 37 45 -85 20z"/>
<path d="M2190 2270 c-9 -6 -10 -10 -3 -10 6 0 15 5 18 10 8 12 4 12 -15 0z"/>
<path d="M2800 2270 c8 -5 20 -10 25 -10 6 0 3 5 -5 10 -8 5 -19 10 -25 10 -5
0 -3 -5 5 -10z"/>
<path d="M3109 2236 c36 -37 55 -47 124 -65 45 -12 120 -37 167 -56 85 -34
143 -42 200 -26 23 6 19 10 -45 46 -89 50 -230 97 -368 124 -60 12 -111 21
-115 21 -3 0 13 -20 37 -44z"/>
<path d="M2234 2254 c-18 -14 -18 -15 6 -8 14 3 32 10 40 15 12 7 11 8 -6 9
-11 0 -29 -7 -40 -16z"/>
<path d="M2457 2263 c-12 -11 -8 -23 8 -23 8 0 15 7 15 15 0 16 -12 20 -23 8z"/>
<path d="M2527 2263 c-12 -11 -8 -23 8 -23 8 0 15 7 15 15 0 16 -12 20 -23 8z"/>
<path d="M2743 2254 c16 -9 32 -13 35 -9 9 9 -19 25 -43 24 -16 0 -15 -2 8
-15z"/>
<path d="M2390 2250 c-13 -8 -12 -10 3 -10 9 0 17 5 17 10 0 12 -1 12 -20 0z"/>
<path d="M2595 2250 c3 -5 11 -10 16 -10 6 0 7 5 4 10 -3 6 -11 10 -16 10 -6
0 -7 -4 -4 -10z"/>
<path d="M2223 2220 c-13 -5 -23 -12 -23 -16 0 -8 53 5 65 17 12 12 -12 11
-42 -1z"/>
<path d="M2755 2215 c17 -8 37 -14 45 -14 8 0 2 7 -15 14 -16 8 -37 14 -45 14
-8 0 -1 -7 15 -14z"/>
<path d="M2388 2213 c-28 -7 -22 -33 7 -33 18 0 25 5 25 20 0 20 -2 21 -32 13z"/>
<path d="M2447 2213 c-16 -15 -6 -33 18 -33 18 0 25 5 25 20 0 20 -28 28 -43
13z"/>
<path d="M2510 2200 c0 -17 5 -21 28 -18 16 2 27 9 27 18 0 9 -11 16 -27 18
-23 3 -28 -1 -28 -18z"/>
<path d="M2584 2205 c3 -9 6 -19 6 -21 0 -9 39 -3 45 7 9 13 7 15 -29 23 -24
6 -27 4 -22 -9z"/>
<path d="M2277 2193 c-25 -24 18 -32 49 -8 18 14 17 14 -12 15 -17 0 -34 -3
-37 -7z"/>
<path d="M2670 2191 c0 -10 50 -25 57 -17 3 2 2 9 -2 15 -8 13 -55 15 -55 2z"/>
<path d="M2210 2180 c-12 -8 -11 -10 7 -10 12 0 25 5 28 10 8 13 -15 13 -35 0z"/>
<path d="M2753 2183 c4 -6 20 -13 37 -15 37 -6 27 8 -14 18 -19 4 -27 3 -23
-3z"/>
<path d="M1782 2162 c-13 -4 -23 -11 -23 -17 -1 -17 -31 -45 -51 -45 -10 0
-18 7 -18 16 0 11 -5 14 -17 9 -10 -4 -37 -14 -60 -22 -24 -8 -43 -17 -43 -20
0 -3 33 -3 74 0 77 6 136 29 170 66 20 22 13 25 -32 13z"/>
<path d="M2377 2163 c-2 -5 -1 -19 3 -33 6 -25 6 -25 18 8 9 26 8 32 -3 32 -8
0 -16 -3 -18 -7z"/>
<path d="M2455 2159 c-4 -5 -4 -22 0 -37 7 -25 8 -25 15 -7 17 41 4 76 -15 44z"/>
<path d="M2520 2166 c0 -3 5 -17 11 -33 l11 -28 9 23 c5 13 7 28 3 33 -5 9
-34 13 -34 5z"/>
<path d="M2600 2157 c0 -7 7 -22 15 -33 14 -18 14 -17 15 14 0 22 -5 32 -15
32 -8 0 -15 -6 -15 -13z"/>
<path d="M3180 2161 c0 -36 128 -84 212 -79 l53 3 -126 43 c-139 46 -139 46
-139 33z"/>
<path d="M2209 2069 c-74 -130 -182 -270 -285 -370 -137 -133 -256 -199 -359
-199 -40 0 -45 -3 -51 -27 -10 -37 24 -63 80 -63 162 0 391 177 560 435 59 88
166 285 166 303 0 7 -13 12 -29 12 -27 0 -35 -9 -82 -91z"/>
<path d="M2290 2048 c-139 -284 -347 -522 -533 -608 -79 -38 -146 -50 -199
-38 -48 10 -53 7 -44 -26 8 -34 72 -66 131 -66 172 0 415 197 585 475 58 94
140 265 140 291 0 32 -12 84 -19 84 -4 0 -31 -50 -61 -112z"/>
<path d="M2406 2113 c-14 -42 -15 -58 -5 -104 l12 -54 19 45 c14 32 18 57 14
88 -10 74 -21 81 -40 25z"/>
<path d="M2497 2150 c-20 -52 -25 -93 -16 -127 18 -68 20 -70 34 -33 8 19 13
51 13 70 0 44 -23 111 -31 90z"/>
<path d="M2567 2130 c-10 -48 -8 -93 4 -129 15 -43 27 -39 35 14 7 52 0 103
-20 130 -12 17 -13 15 -19 -15z"/>
<path d="M2645 2133 c-4 -16 -8 -37 -10 -47 -2 -11 22 -74 55 -140 139 -288
327 -503 520 -595 65 -31 85 -36 147 -36 83 0 126 23 131 69 3 25 1 27 -18 21
-44 -14 -129 -6 -189 19 -91 37 -167 91 -261 186 -112 113 -203 243 -290 413
-39 75 -73 137 -75 137 -3 0 -7 -12 -10 -27z"/>
<path d="M2702 2113 c11 -27 47 -96 80 -154 201 -357 513 -604 682 -539 21 8
26 16 26 45 l0 35 -50 0 c-107 0 -233 72 -376 214 -106 107 -171 192 -256 338
-59 100 -65 107 -95 107 l-32 1 21 -47z"/>
<path d="M2095 2139 c-34 -8 -52 -23 -120 -105 -91 -108 -230 -230 -330 -289
-49 -28 -72 -48 -81 -72 -25 -60 -21 -64 41 -43 157 54 367 253 520 493 9 15
16 27 14 26 -2 -1 -22 -5 -44 -10z"/>
<path d="M2147 2118 c-147 -203 -209 -274 -324 -373 -81 -69 -173 -122 -242
-140 -45 -11 -46 -12 -49 -53 -3 -42 -3 -42 30 -42 167 2 425 225 609 527 32
53 59 101 59 105 0 4 -13 8 -29 8 -22 0 -36 -9 -54 -32z"/>
<path d="M2801 2093 c135 -240 330 -451 491 -533 81 -40 162 -60 179 -43 15
15 0 83 -17 83 -30 0 -123 39 -179 75 -124 79 -243 202 -370 381 -63 88 -69
94 -102 94 l-34 0 32 -57z"/>
<path d="M2879 2121 c59 -110 282 -352 392 -425 51 -33 177 -91 185 -84 1 2
-2 23 -8 47 -8 32 -19 48 -41 60 -133 72 -274 190 -383 324 -37 45 -68 83 -69
84 0 1 -20 5 -44 9 -42 7 -43 6 -32 -15z"/>
<path d="M1985 2115 c-5 -2 -22 -6 -36 -9 -14 -3 -70 -47 -125 -97 -54 -50
-116 -103 -137 -117 -36 -24 -106 -136 -93 -149 7 -7 79 36 154 92 60 45 244
232 263 268 10 17 1 21 -26 12z"/>
<path d="M2990 2113 c0 -13 160 -185 220 -238 65 -57 189 -139 198 -131 3 4
-7 32 -22 64 -20 41 -42 67 -80 94 -28 21 -90 74 -138 117 -47 44 -95 81 -105
84 -49 14 -73 17 -73 10z"/>
<path d="M1822 2073 c-19 -9 -47 -30 -64 -47 -37 -36 -83 -104 -76 -112 3 -2
45 30 93 73 110 97 124 124 47 86z"/>
<path d="M3219 2000 c52 -49 98 -90 103 -90 26 0 -77 132 -121 154 -78 40 -73
24 18 -64z"/>
<path d="M2321 1922 c-142 -288 -360 -527 -547 -600 -83 -33 -132 -36 -199
-14 -33 11 -62 19 -64 17 -9 -9 32 -57 71 -83 37 -24 51 -27 118 -27 66 1 86
6 150 36 188 89 369 292 501 561 44 90 50 108 45 146 -11 82 -19 78 -75 -36z"/>
<path d="M2611 1978 l-12 -53 66 -131 c199 -394 526 -651 723 -568 42 17 102
71 102 91 0 16 0 16 -41 -4 -46 -23 -140 -20 -210 6 -191 72 -392 287 -539
573 -39 76 -72 138 -74 138 -1 0 -8 -24 -15 -52z"/>
<path d="M1338 2013 c12 -2 32 -2 45 0 12 2 2 4 -23 4 -25 0 -35 -2 -22 -4z"/>
<path d="M2441 1979 c-20 -44 -20 -49 -5 -99 17 -59 27 -57 45 10 10 38 9 53
-3 90 l-16 45 -21 -46z"/>
<path d="M2526 1973 c-17 -51 -17 -53 5 -100 l22 -48 13 40 c17 54 16 73 -5
120 l-18 40 -17 -52z"/>
<path d="M3618 2013 c12 -2 32 -2 45 0 12 2 2 4 -23 4 -25 0 -35 -2 -22 -4z"/>
<path d="M1438 1993 c7 -3 16 -2 19 1 4 3 -2 6 -13 5 -11 0 -14 -3 -6 -6z"/>
<path d="M3558 1993 c7 -3 16 -2 19 1 4 3 -2 6 -13 5 -11 0 -14 -3 -6 -6z"/>
<path d="M1455 1983 c-16 -3 -34 -9 -40 -14 -10 -10 45 -2 80 12 21 8 9 9 -40
2z"/>
<path d="M3498 1983 c7 -3 16 -2 19 1 4 3 -2 6 -13 5 -11 0 -14 -3 -6 -6z"/>
<path d="M3550 1970 c14 -4 32 -8 40 -9 13 -1 13 0 0 9 -8 5 -26 9 -40 9 l-25
-1 25 -8z"/>
<path d="M1450 1954 l-55 -14 48 4 c27 2 54 9 60 15 6 6 9 10 7 10 -3 -1 -30
-8 -60 -15z"/>
<path d="M3514 1955 c11 -8 38 -14 60 -14 27 1 32 3 16 6 -14 2 -41 8 -60 13
-32 8 -33 8 -16 -5z"/>
<path d="M1513 1938 c-13 -6 -23 -15 -23 -20 0 -10 36 7 45 22 7 12 7 12 -22
-2z"/>
<path d="M3460 1945 c0 -2 14 -11 30 -20 17 -9 30 -12 30 -7 0 5 -11 14 -25
20 -28 13 -35 14 -35 7z"/>
<path d="M1496 1879 c-14 -17 -26 -35 -26 -41 0 -6 1 -9 3 -7 1 2 18 21 36 42
19 20 30 37 24 37 -6 0 -23 -14 -37 -31z"/>
<path d="M1544 1888 l-19 -23 23 19 c21 18 27 26 19 26 -2 0 -12 -10 -23 -22z"/>
<path d="M3499 1873 c18 -24 35 -43 37 -43 10 0 -16 36 -42 60 -26 23 -25 22
5 -17z"/>
<path d="M2361 1794 c-128 -239 -296 -441 -435 -523 -128 -76 -251 -92 -342
-46 -27 14 -50 25 -52 25 -13 0 41 -67 71 -90 208 -153 569 85 786 517 53 108
57 126 37 182 l-12 35 -53 -100z"/>
<path d="M2485 1854 c-21 -50 -21 -70 0 -119 l17 -40 19 40 c23 51 23 63 0
116 l-19 42 -17 -39z"/>
<path d="M2586 1879 c-28 -84 -28 -85 33 -203 80 -155 136 -238 225 -333 121
-130 260 -212 384 -229 90 -12 199 42 238 119 l16 29 -38 -28 c-32 -25 -48
-29 -116 -33 -64 -2 -92 1 -141 19 -194 71 -380 266 -537 565 -61 116 -58 112
-64 94z"/>
<path d="M3485 1850 c10 -11 20 -20 23 -20 3 0 -3 9 -13 20 -10 11 -20 20 -23
20 -3 0 3 -9 13 -20z"/>
<path d="M1499 1833 c-13 -16 -12 -17 4 -4 9 7 17 15 17 17 0 8 -8 3 -21 -13z"/>
<path d="M3500 1791 c0 -6 4 -13 10 -16 6 -3 7 1 4 9 -7 18 -14 21 -14 7z"/>
<path d="M1486 1773 c-6 -14 -5 -15 5 -6 7 7 10 15 7 18 -3 3 -9 -2 -12 -12z"/>
<path d="M2396 1655 c-82 -155 -148 -247 -251 -350 -183 -183 -376 -248 -519
-177 -31 16 -56 26 -56 23 0 -13 86 -89 119 -106 51 -26 136 -30 211 -11 181
47 369 219 508 466 83 147 88 164 65 219 l-19 45 -58 -109z"/>
<path d="M2536 1728 c-24 -57 -20 -83 31 -176 136 -252 283 -406 469 -494 62
-29 78 -33 159 -33 67 0 98 4 122 18 41 22 101 74 114 99 9 17 4 16 -38 -9
-43 -25 -57 -28 -138 -27 -74 0 -101 5 -153 27 -88 37 -175 101 -268 199 -93
99 -159 194 -231 333 l-52 100 -15 -37z"/>
<path d="M2495 1630 c-3 -5 -1 -10 4 -10 6 0 11 5 11 10 0 6 -2 10 -4 10 -3 0
-8 -4 -11 -10z"/>
</g>
</svg>
